<svg width="244" height="284" viewBox="0 0 244 284" fill="none" xmlns="http://www.w3.org/2000/svg">
<g filter="url(#filter0_d)">
<path d="M19.9219 190.734L20.2734 195.461C23.2682 191.789 27.3177 189.953 32.4219 189.953C37.8646 189.953 41.6016 192.102 43.6328 196.398C46.6016 192.102 50.8333 189.953 56.3281 189.953C60.9115 189.953 64.3229 191.294 66.5625 193.977C68.8021 196.633 69.9219 200.643 69.9219 206.008V233H58.5938V206.047C58.5938 203.651 58.125 201.906 57.1875 200.812C56.25 199.693 54.5964 199.133 52.2266 199.133C48.8411 199.133 46.4974 200.747 45.1953 203.977L45.2344 233H33.9453V206.086C33.9453 203.638 33.4635 201.867 32.5 200.773C31.5365 199.68 29.8958 199.133 27.5781 199.133C24.375 199.133 22.0573 200.461 20.625 203.117V233H9.33594V190.734H19.9219ZM94.4141 217.023L102.227 190.734H114.336L97.3438 239.562L96.4062 241.789C93.8802 247.31 89.7135 250.07 83.9062 250.07C82.2656 250.07 80.599 249.823 78.9062 249.328V240.773L80.625 240.812C82.7604 240.812 84.349 240.487 85.3906 239.836C86.4583 239.185 87.2917 238.104 87.8906 236.594L89.2188 233.117L74.4141 190.734H86.5625L94.4141 217.023Z" fill="#28A3F3"/>
<path d="M138.242 233.781C132.044 233.781 126.992 231.88 123.086 228.078C119.206 224.276 117.266 219.211 117.266 212.883V211.789C117.266 207.544 118.086 203.755 119.727 200.422C121.367 197.062 123.685 194.484 126.68 192.688C129.701 190.865 133.138 189.953 136.992 189.953C142.773 189.953 147.318 191.776 150.625 195.422C153.958 199.068 155.625 204.237 155.625 210.93V215.539H128.711C129.076 218.299 130.169 220.513 131.992 222.18C133.841 223.846 136.172 224.68 138.984 224.68C143.333 224.68 146.732 223.104 149.18 219.953L154.727 226.164C153.034 228.56 150.742 230.435 147.852 231.789C144.961 233.117 141.758 233.781 138.242 233.781ZM136.953 199.094C134.714 199.094 132.891 199.849 131.484 201.359C130.104 202.87 129.219 205.031 128.828 207.844H144.531V206.945C144.479 204.445 143.802 202.518 142.5 201.164C141.198 199.784 139.349 199.094 136.953 199.094ZM177.305 217.023L185.117 190.734H197.227L180.234 239.562L179.297 241.789C176.771 247.31 172.604 250.07 166.797 250.07C165.156 250.07 163.49 249.823 161.797 249.328V240.773L163.516 240.812C165.651 240.812 167.24 240.487 168.281 239.836C169.349 239.185 170.182 238.104 170.781 236.594L172.109 233.117L157.305 190.734H169.453L177.305 217.023ZM220.586 233.781C214.388 233.781 209.336 231.88 205.43 228.078C201.549 224.276 199.609 219.211 199.609 212.883V211.789C199.609 207.544 200.43 203.755 202.07 200.422C203.711 197.062 206.029 194.484 209.023 192.688C212.044 190.865 215.482 189.953 219.336 189.953C225.117 189.953 229.661 191.776 232.969 195.422C236.302 199.068 237.969 204.237 237.969 210.93V215.539H211.055C211.419 218.299 212.513 220.513 214.336 222.18C216.185 223.846 218.516 224.68 221.328 224.68C225.677 224.68 229.076 223.104 231.523 219.953L237.07 226.164C235.378 228.56 233.086 230.435 230.195 231.789C227.305 233.117 224.102 233.781 220.586 233.781ZM219.297 199.094C217.057 199.094 215.234 199.849 213.828 201.359C212.448 202.87 211.562 205.031 211.172 207.844H226.875V206.945C226.823 204.445 226.146 202.518 224.844 201.164C223.542 199.784 221.693 199.094 219.297 199.094Z" fill="#1E77FA"/>
</g>
<g filter="url(#filter1_d)">
<path fill-rule="evenodd" clip-rule="evenodd" d="M4.99854 90C32.9451 35.0297 75.2056 0 122.499 0C169.792 0 212.052 35.0297 239.999 90C212.052 144.97 169.792 180 122.499 180C75.2056 180 32.9451 144.97 4.99854 90Z" fill="url(#paint0_linear)" shape-rendering="crispEdges"/>
</g>
<g filter="url(#filter2_d)">
<path d="M16.7998 267.192H13.2988V275H8.9043V253.672H16.8291C19.3486 253.672 21.292 254.233 22.6592 255.356C24.0264 256.479 24.71 258.066 24.71 260.117C24.71 261.572 24.3926 262.788 23.7578 263.765C23.1328 264.731 22.1807 265.503 20.9014 266.079L25.5156 274.795V275H20.7988L16.7998 267.192ZM13.2988 263.633H16.8438C17.9473 263.633 18.8018 263.354 19.4072 262.798C20.0127 262.231 20.3154 261.455 20.3154 260.469C20.3154 259.463 20.0273 258.672 19.4512 258.096C18.8848 257.52 18.0107 257.231 16.8291 257.231H13.2988V263.633ZM41.1965 265.757H32.759V271.47H42.6613V275H28.3645V253.672H42.632V257.231H32.759V262.314H41.1965V265.757ZM62.2826 267.896C62.1166 270.19 61.267 271.997 59.7338 273.315C58.2104 274.634 56.1986 275.293 53.6986 275.293C50.9643 275.293 48.8109 274.375 47.2387 272.539C45.6762 270.693 44.8949 268.164 44.8949 264.951V263.647C44.8949 261.597 45.2562 259.79 45.9789 258.228C46.7016 256.665 47.7318 255.469 49.0697 254.639C50.4174 253.799 51.9799 253.379 53.7572 253.379C56.2182 253.379 58.2006 254.038 59.7045 255.356C61.2084 256.675 62.0775 258.525 62.3119 260.908H57.9174C57.81 259.531 57.4242 258.535 56.7602 257.92C56.1059 257.295 55.1049 256.982 53.7572 256.982C52.2924 256.982 51.1937 257.51 50.4613 258.564C49.7387 259.609 49.3676 261.235 49.348 263.442V265.054C49.348 267.358 49.6947 269.043 50.3881 270.107C51.0912 271.172 52.1947 271.704 53.6986 271.704C55.0561 271.704 56.0668 271.396 56.7309 270.781C57.4047 270.156 57.7904 269.194 57.8881 267.896H62.2826ZM82.9879 264.819C82.9879 266.919 82.6168 268.76 81.8746 270.342C81.1324 271.924 80.068 273.145 78.6813 274.004C77.3043 274.863 75.7223 275.293 73.9352 275.293C72.1676 275.293 70.5904 274.868 69.2037 274.019C67.817 273.169 66.7428 271.958 65.9811 270.386C65.2193 268.804 64.8336 266.987 64.8238 264.937V263.882C64.8238 261.782 65.1998 259.937 65.9518 258.345C66.7135 256.743 67.7828 255.518 69.1598 254.668C70.5465 253.809 72.1285 253.379 73.9059 253.379C75.6832 253.379 77.2604 253.809 78.6373 254.668C80.024 255.518 81.0934 256.743 81.8453 258.345C82.607 259.937 82.9879 261.777 82.9879 263.867V264.819ZM78.5348 263.853C78.5348 261.616 78.1344 259.917 77.3336 258.755C76.5328 257.593 75.3902 257.012 73.9059 257.012C72.4313 257.012 71.2936 257.588 70.4928 258.74C69.692 259.883 69.2867 261.562 69.277 263.779V264.819C69.277 266.997 69.6773 268.687 70.4781 269.888C71.2789 271.089 72.4313 271.689 73.9352 271.689C75.4098 271.689 76.5426 271.113 77.3336 269.961C78.1246 268.799 78.525 267.109 78.5348 264.893V263.853ZM94.3768 267.192H90.8758V275H86.4812V253.672H94.4061C96.9256 253.672 98.8689 254.233 100.236 255.356C101.603 256.479 102.287 258.066 102.287 260.117C102.287 261.572 101.97 262.788 101.335 263.765C100.71 264.731 99.7576 265.503 98.4783 266.079L103.093 274.795V275H98.3758L94.3768 267.192ZM90.8758 263.633H94.4207C95.5242 263.633 96.3787 263.354 96.9842 262.798C97.5896 262.231 97.8924 261.455 97.8924 260.469C97.8924 259.463 97.6043 258.672 97.0281 258.096C96.4617 257.52 95.5877 257.231 94.4061 257.231H90.8758V263.633ZM105.941 275V253.672H112.504C114.379 253.672 116.054 254.097 117.528 254.946C119.013 255.786 120.17 256.987 121 258.55C121.83 260.103 122.245 261.87 122.245 263.853V264.834C122.245 266.816 121.835 268.579 121.015 270.122C120.204 271.665 119.057 272.861 117.572 273.711C116.088 274.561 114.413 274.99 112.548 275H105.941ZM110.336 257.231V271.47H112.46C114.179 271.47 115.492 270.908 116.4 269.785C117.309 268.662 117.772 267.056 117.792 264.966V263.838C117.792 261.67 117.343 260.029 116.444 258.916C115.546 257.793 114.232 257.231 112.504 257.231H110.336ZM132.66 269.258C132.66 268.271 132.933 267.358 133.48 266.519C134.037 265.679 135.052 264.746 136.527 263.721C135.892 262.871 135.394 262.075 135.033 261.333C134.671 260.581 134.491 259.8 134.491 258.989C134.491 257.329 135.013 255.981 136.058 254.946C137.113 253.901 138.529 253.379 140.306 253.379C141.898 253.379 143.202 253.853 144.217 254.8C145.243 255.747 145.755 256.929 145.755 258.345C145.755 260.044 144.896 261.543 143.177 262.842L141.537 264.028L145.213 268.306C145.789 267.173 146.078 265.923 146.078 264.556H149.681C149.681 267.329 149.041 269.575 147.762 271.294L150.955 275H146.151L145.052 273.74C143.48 274.775 141.673 275.293 139.632 275.293C137.523 275.293 135.833 274.741 134.564 273.638C133.294 272.524 132.66 271.064 132.66 269.258ZM139.837 271.895C140.853 271.895 141.815 271.611 142.723 271.045L138.519 266.182L138.211 266.401C137.342 267.144 136.908 268.018 136.908 269.023C136.908 269.873 137.176 270.566 137.713 271.104C138.26 271.631 138.968 271.895 139.837 271.895ZM138.285 258.931C138.285 259.663 138.714 260.586 139.574 261.699L140.702 260.952C141.278 260.581 141.673 260.22 141.888 259.868C142.113 259.517 142.225 259.097 142.225 258.608C142.225 258.12 142.044 257.695 141.683 257.334C141.322 256.973 140.858 256.792 140.291 256.792C139.686 256.792 139.198 256.987 138.827 257.378C138.465 257.769 138.285 258.286 138.285 258.931ZM178.025 267.896C177.859 270.19 177.01 271.997 175.476 273.315C173.953 274.634 171.941 275.293 169.441 275.293C166.707 275.293 164.554 274.375 162.981 272.539C161.419 270.693 160.637 268.164 160.637 264.951V263.647C160.637 261.597 160.999 259.79 161.721 258.228C162.444 256.665 163.474 255.469 164.812 254.639C166.16 253.799 167.722 253.379 169.5 253.379C171.961 253.379 173.943 254.038 175.447 255.356C176.951 256.675 177.82 258.525 178.054 260.908H173.66C173.553 259.531 173.167 258.535 172.503 257.92C171.848 257.295 170.847 256.982 169.5 256.982C168.035 256.982 166.936 257.51 166.204 258.564C165.481 259.609 165.11 261.235 165.091 263.442V265.054C165.091 267.358 165.437 269.043 166.131 270.107C166.834 271.172 167.937 271.704 169.441 271.704C170.799 271.704 171.809 271.396 172.473 270.781C173.147 270.156 173.533 269.194 173.631 267.896H178.025ZM193.252 270.605H185.547L184.082 275H179.409L187.349 253.672H191.421L199.404 275H194.731L193.252 270.605ZM186.733 267.046H192.065L189.385 259.062L186.733 267.046ZM209.592 267.192H206.091V275H201.696V253.672H209.621C212.141 253.672 214.084 254.233 215.451 255.356C216.819 256.479 217.502 258.066 217.502 260.117C217.502 261.572 217.185 262.788 216.55 263.765C215.925 264.731 214.973 265.503 213.694 266.079L218.308 274.795V275H213.591L209.592 267.192ZM206.091 263.633H209.636C210.739 263.633 211.594 263.354 212.199 262.798C212.805 262.231 213.108 261.455 213.108 260.469C213.108 259.463 212.82 258.672 212.243 258.096C211.677 257.52 210.803 257.231 209.621 257.231H206.091V263.633ZM233.989 265.757H225.551V271.47H235.454V275H221.157V253.672H235.424V257.231H225.551V262.314H233.989V265.757Z" fill="black"/>
</g>
<g filter="url(#filter3_d)">
<circle cx="123" cy="91" r="90" fill="#297CF6"/>
</g>
<g filter="url(#filter4_d)">
<circle cx="123" cy="91" r="50" fill="url(#paint1_linear)" shape-rendering="crispEdges"/>
</g>
<g filter="url(#filter5_d)">
<rect x="84" y="60" width="30" height="30" fill="white"/>
</g>
<g filter="url(#filter6_d)">
<rect x="150" y="114" width="10" height="10" fill="white"/>
</g>
<defs>
<filter id="filter0_d" x="5.33594" y="189.953" width="236.633" height="68.1172" filterUnits="userSpaceOnUse" color-interpolation-filters="sRGB">
<feFlood flood-opacity="0" result="BackgroundImageFix"/>
<feColorMatrix in="SourceAlpha" type="matrix" values="0 0 0 0 0 0 0 0 0 0 0 0 0 0 0 0 0 0 127 0" result="hardAlpha"/>
<feOffset dy="4"/>
<feGaussianBlur stdDeviation="2"/>
<feComposite in2="hardAlpha" operator="out"/>
<feColorMatrix type="matrix" values="0 0 0 0 0 0 0 0 0 0 0 0 0 0 0 0 0 0 0.25 0"/>
<feBlend mode="normal" in2="BackgroundImageFix" result="effect1_dropShadow"/>
<feBlend mode="normal" in="SourceGraphic" in2="effect1_dropShadow" result="shape"/>
</filter>
<filter id="filter1_d" x="0.998535" y="0" width="243" height="188" filterUnits="userSpaceOnUse" color-interpolation-filters="sRGB">
<feFlood flood-opacity="0" result="BackgroundImageFix"/>
<feColorMatrix in="SourceAlpha" type="matrix" values="0 0 0 0 0 0 0 0 0 0 0 0 0 0 0 0 0 0 127 0" result="hardAlpha"/>
<feOffset dy="4"/>
<feGaussianBlur stdDeviation="2"/>
<feComposite in2="hardAlpha" operator="out"/>
<feColorMatrix type="matrix" values="0 0 0 0 0 0 0 0 0 0 0 0 0 0 0 0 0 0 0.25 0"/>
<feBlend mode="normal" in2="BackgroundImageFix" result="effect1_dropShadow"/>
<feBlend mode="normal" in="SourceGraphic" in2="effect1_dropShadow" result="shape"/>
</filter>
<filter id="filter2_d" x="4.9043" y="253.379" width="234.549" height="29.9141" filterUnits="userSpaceOnUse" color-interpolation-filters="sRGB">
<feFlood flood-opacity="0" result="BackgroundImageFix"/>
<feColorMatrix in="SourceAlpha" type="matrix" values="0 0 0 0 0 0 0 0 0 0 0 0 0 0 0 0 0 0 127 0" result="hardAlpha"/>
<feOffset dy="4"/>
<feGaussianBlur stdDeviation="2"/>
<feComposite in2="hardAlpha" operator="out"/>
<feColorMatrix type="matrix" values="0 0 0 0 0 0 0 0 0 0 0 0 0 0 0 0 0 0 0.25 0"/>
<feBlend mode="normal" in2="BackgroundImageFix" result="effect1_dropShadow"/>
<feBlend mode="normal" in="SourceGraphic" in2="effect1_dropShadow" result="shape"/>
</filter>
<filter id="filter3_d" x="29.0005" y="1" width="188" height="188" filterUnits="userSpaceOnUse" color-interpolation-filters="sRGB">
<feFlood flood-opacity="0" result="BackgroundImageFix"/>
<feColorMatrix in="SourceAlpha" type="matrix" values="0 0 0 0 0 0 0 0 0 0 0 0 0 0 0 0 0 0 127 0" result="hardAlpha"/>
<feOffset dy="4"/>
<feGaussianBlur stdDeviation="2"/>
<feComposite in2="hardAlpha" operator="out"/>
<feColorMatrix type="matrix" values="0 0 0 0 0 0 0 0 0 0 0 0 0 0 0 0 0 0 0.25 0"/>
<feBlend mode="normal" in2="BackgroundImageFix" result="effect1_dropShadow"/>
<feBlend mode="normal" in="SourceGraphic" in2="effect1_dropShadow" result="shape"/>
</filter>
<filter id="filter4_d" x="69" y="41" width="108" height="108" filterUnits="userSpaceOnUse" color-interpolation-filters="sRGB">
<feFlood flood-opacity="0" result="BackgroundImageFix"/>
<feColorMatrix in="SourceAlpha" type="matrix" values="0 0 0 0 0 0 0 0 0 0 0 0 0 0 0 0 0 0 127 0" result="hardAlpha"/>
<feOffset dy="4"/>
<feGaussianBlur stdDeviation="2"/>
<feComposite in2="hardAlpha" operator="out"/>
<feColorMatrix type="matrix" values="0 0 0 0 0 0 0 0 0 0 0 0 0 0 0 0 0 0 0.25 0"/>
<feBlend mode="normal" in2="BackgroundImageFix" result="effect1_dropShadow"/>
<feBlend mode="normal" in="SourceGraphic" in2="effect1_dropShadow" result="shape"/>
</filter>
<filter id="filter5_d" x="80" y="60" width="38" height="38" filterUnits="userSpaceOnUse" color-interpolation-filters="sRGB">
<feFlood flood-opacity="0" result="BackgroundImageFix"/>
<feColorMatrix in="SourceAlpha" type="matrix" values="0 0 0 0 0 0 0 0 0 0 0 0 0 0 0 0 0 0 127 0" result="hardAlpha"/>
<feOffset dy="4"/>
<feGaussianBlur stdDeviation="2"/>
<feComposite in2="hardAlpha" operator="out"/>
<feColorMatrix type="matrix" values="0 0 0 0 0 0 0 0 0 0 0 0 0 0 0 0 0 0 0.25 0"/>
<feBlend mode="normal" in2="BackgroundImageFix" result="effect1_dropShadow"/>
<feBlend mode="normal" in="SourceGraphic" in2="effect1_dropShadow" result="shape"/>
</filter>
<filter id="filter6_d" x="146" y="114" width="18" height="18" filterUnits="userSpaceOnUse" color-interpolation-filters="sRGB">
<feFlood flood-opacity="0" result="BackgroundImageFix"/>
<feColorMatrix in="SourceAlpha" type="matrix" values="0 0 0 0 0 0 0 0 0 0 0 0 0 0 0 0 0 0 127 0" result="hardAlpha"/>
<feOffset dy="4"/>
<feGaussianBlur stdDeviation="2"/>
<feComposite in2="hardAlpha" operator="out"/>
<feColorMatrix type="matrix" values="0 0 0 0 0 0 0 0 0 0 0 0 0 0 0 0 0 0 0.25 0"/>
<feBlend mode="normal" in2="BackgroundImageFix" result="effect1_dropShadow"/>
<feBlend mode="normal" in="SourceGraphic" in2="effect1_dropShadow" result="shape"/>
</filter>
<linearGradient id="paint0_linear" x1="119.579" y1="180" x2="118.469" y2="4.5024" gradientUnits="userSpaceOnUse">
<stop stop-color="white"/>
<stop offset="1" stop-color="#0067FE" stop-opacity="0.45"/>
</linearGradient>
<linearGradient id="paint1_linear" x1="123" y1="41" x2="123" y2="141" gradientUnits="userSpaceOnUse">
<stop stop-color="#2FC5F4"/>
<stop offset="1" stop-color="#23B0F0" stop-opacity="0.43"/>
</linearGradient>
</defs>
</svg>
