<?xml version="1.0" standalone="no"?>
<!DOCTYPE svg PUBLIC "-//W3C//DTD SVG 20010904//EN"
 "http://www.w3.org/TR/2001/REC-SVG-20010904/DTD/svg10.dtd">
<svg version="1.0" xmlns="http://www.w3.org/2000/svg"
 width="600.000000pt" height="190.000000pt" viewBox="0 0 600.000000 190.000000"
 preserveAspectRatio="xMidYMid meet">

<g transform="translate(0.000000,190.000000) scale(0.100000,-0.100000)"
fill="#000000" stroke="none">
<path d="M1695 1465 c-174 -32 -308 -75 -665 -215 -366 -143 -451 -165 -607
-158 -54 3 -107 8 -118 12 -50 19 48 -54 101 -75 52 -20 76 -23 204 -23 181 0
243 18 509 140 535 246 839 316 1092 249 29 -8 55 -13 56 -11 8 8 -139 65
-204 80 -86 19 -267 20 -368 1z"/>
<path d="M5382 1329 c-120 -23 -230 -107 -278 -212 -24 -52 -29 -75 -29 -142
0 -44 6 -102 14 -129 20 -69 87 -136 166 -166 120 -47 341 -23 431 46 l32 23
-17 46 c-9 25 -18 45 -21 45 -3 -1 -14 -20 -25 -43 -37 -79 -142 -119 -257
-98 -76 13 -123 43 -159 100 -38 60 -51 109 -51 196 1 121 57 226 146 272 41
22 163 29 211 13 48 -16 111 -72 120 -108 l8 -27 7 25 c4 14 10 48 14 77 l6
51 -32 11 c-93 29 -202 37 -286 20z"/>
<path d="M2800 1315 c0 -9 9 -15 21 -15 11 0 34 -14 51 -30 l30 -30 -7 -233
c-3 -127 -8 -251 -11 -274 -5 -40 -8 -43 -35 -43 -19 0 -29 -5 -29 -15 0 -12
17 -15 95 -15 78 0 95 3 95 15 0 10 -10 15 -30 15 -24 0 -33 6 -40 26 -11 28
-12 289 -1 394 l6 64 130 -259 c74 -147 137 -261 145 -262 11 -2 50 72 134
255 65 141 123 261 127 267 5 5 9 -97 9 -238 l0 -247 -30 0 c-20 0 -30 -5 -30
-15 0 -13 21 -15 125 -15 104 0 125 2 125 15 0 10 -10 15 -30 15 -46 0 -51 36
-48 340 l3 265 28 3 c15 2 27 9 27 18 0 11 -17 14 -76 14 l-75 0 -83 -172
c-45 -95 -100 -212 -121 -260 -22 -48 -44 -86 -50 -84 -5 1 -68 117 -140 257
l-130 254 -92 3 c-78 2 -93 0 -93 -13z"/>
<path d="M3760 1315 c0 -10 11 -15 35 -15 29 0 37 -5 45 -26 6 -14 10 -147 10
-305 l0 -279 -45 0 c-34 0 -45 -4 -45 -15 0 -13 32 -15 252 -13 l252 3 23 40
c12 22 21 41 19 42 -1 1 -25 -6 -52 -16 -52 -20 -177 -41 -245 -41 -53 0 -59
18 -59 181 l0 130 118 -3 117 -3 3 -42 c2 -28 8 -43 17 -43 10 0 14 23 17 100
3 88 1 100 -14 100 -12 0 -18 -10 -20 -32 l-3 -33 -117 -3 -118 -3 0 131 c0
150 -16 136 138 119 59 -6 109 -18 129 -29 l32 -19 15 45 15 44 -260 0 c-224
0 -259 -2 -259 -15z"/>
<path d="M4350 1313 c0 -14 8 -18 32 -18 27 0 33 -4 40 -32 5 -18 7 -153 6
-300 l-3 -268 -32 -3 c-21 -2 -33 -9 -33 -18 0 -11 25 -14 140 -14 118 0 140
2 140 15 0 11 -12 15 -45 15 -59 0 -65 15 -65 166 0 90 3 114 14 114 31 0 76
-13 76 -23 0 -17 106 -169 160 -229 l52 -58 94 0 c72 0 94 3 94 13 0 8 -19 19
-42 26 -30 9 -62 34 -116 89 -70 72 -150 178 -141 186 2 2 23 13 46 24 131 67
137 237 10 305 -39 20 -58 22 -234 25 -182 3 -193 2 -193 -15z m328 -45 c57
-27 82 -68 82 -135 0 -90 -57 -133 -177 -133 l-53 0 0 143 c0 79 3 147 7 151
12 12 94 -3 141 -26z"/>
<path d="M1990 1163 c-60 -17 -141 -55 -237 -111 -123 -72 -135 -87 -149 -189
-12 -93 50 -250 115 -290 60 -37 397 -42 444 -6 36 27 85 95 103 144 23 61 23
172 0 232 -19 50 -31 59 -41 29 -5 -19 -44 -42 -69 -42 -29 0 -66 41 -66 74 0
41 17 64 55 74 l30 8 -45 27 c-56 33 -120 55 -140 50z m-51 -151 c20 -38 -31
-71 -59 -37 -6 8 -9 23 -5 35 8 25 51 27 64 2z"/>
<path d="M3503 553 c-16 -6 -18 -143 -3 -143 6 0 10 28 11 63 l1 62 21 -63
c11 -34 25 -61 31 -59 5 2 19 30 30 63 l21 59 6 -65 6 -65 1 78 c1 42 -2 77
-7 77 -5 0 -19 -29 -31 -65 -12 -36 -23 -65 -25 -65 -2 0 -13 29 -25 65 -12
36 -22 65 -23 64 -1 0 -8 -3 -14 -6z"/>
<path d="M3840 483 l0 -73 53 2 52 2 -47 3 c-45 4 -48 6 -48 33 0 27 3 29 48
33 l47 3 -47 2 c-44 2 -48 4 -48 27 0 23 4 25 45 25 25 0 45 3 45 8 0 4 -22 7
-50 7 l-50 0 0 -72z"/>
<path d="M4261 480 c1 -53 3 -65 8 -40 10 56 49 49 87 -16 7 -10 15 -16 19
-12 4 4 -2 20 -14 36 -18 26 -19 31 -5 36 10 4 14 16 12 33 -3 26 -7 28 -55
33 l-53 6 1 -76z m94 35 c0 -16 -8 -21 -42 -23 -40 -3 -43 -2 -43 23 0 25 3
26 43 23 34 -2 42 -7 42 -23z"/>
<path d="M4890 530 c0 -27 -2 -30 -20 -20 -15 8 -24 6 -40 -10 -11 -11 -20
-29 -20 -40 0 -31 36 -63 59 -51 10 6 21 7 25 4 3 -3 6 28 6 70 0 43 -2 77 -5
77 -3 0 -5 -14 -5 -30z m-5 -70 c0 -31 -3 -35 -25 -35 -19 0 -26 6 -28 23 -5
36 5 54 30 50 19 -2 23 -9 23 -38z"/>
<path d="M5021 546 c-7 -8 -9 -25 -6 -39 5 -17 2 -26 -9 -30 -23 -9 -20 -43 5
-61 15 -10 28 -12 45 -6 13 5 32 6 41 3 15 -6 16 -4 5 9 -7 8 -9 24 -5 33 5
14 3 17 -9 13 -27 -11 -39 12 -21 38 12 19 13 27 3 39 -16 19 -34 19 -49 1z
m35 -31 c-5 -14 -9 -15 -21 -5 -12 10 -13 16 -4 27 15 18 34 1 25 -22z m-2
-57 c18 -25 13 -38 -15 -38 -22 0 -34 22 -25 45 8 21 22 19 40 -7z"/>
<path d="M5213 534 c-21 -21 -24 -32 -20 -62 8 -46 26 -63 67 -64 31 -1 68 27
54 41 -3 3 -10 -2 -15 -12 -14 -24 -65 -23 -79 2 -30 57 11 127 59 101 12 -6
21 -15 21 -21 0 -6 5 -7 12 -3 15 9 -27 44 -54 44 -10 0 -30 -12 -45 -26z"/>
<path d="M4090 500 c-31 -31 -21 -79 20 -92 18 -6 50 9 50 22 0 6 -8 5 -19 -1
-22 -15 -51 -5 -51 16 0 11 11 15 40 15 46 0 54 19 18 44 -29 20 -34 20 -58
-4z m58 -17 c2 -9 -7 -13 -27 -13 -30 0 -39 9 -24 24 11 10 46 3 51 -11z"/>
<path d="M4420 500 c-31 -31 -21 -79 20 -92 18 -6 50 9 50 22 0 6 -8 5 -19 -1
-22 -15 -51 -5 -51 16 0 11 11 15 40 15 46 0 54 19 18 44 -29 20 -34 20 -58
-4z m58 -17 c2 -9 -7 -13 -27 -13 -30 0 -39 9 -24 24 11 10 46 3 51 -11z"/>
<path d="M4542 504 c-29 -20 -30 -68 -1 -88 23 -16 60 -9 67 13 3 10 0 10 -16
0 -29 -18 -52 -5 -52 31 0 35 23 49 51 31 11 -6 19 -7 19 -1 0 8 -31 30 -42
30 -2 0 -14 -7 -26 -16z"/>
<path d="M4657 512 c-42 -9 -41 -93 2 -105 29 -7 61 19 61 51 0 43 -23 63 -63
54z m47 -34 c15 -25 -4 -53 -35 -53 -25 0 -37 30 -25 61 8 20 46 14 60 -8z"/>
<path d="M4775 510 c-4 -6 -11 -8 -16 -5 -5 4 -8 -16 -8 -47 1 -29 3 -42 6
-28 9 56 14 69 31 72 12 2 13 6 5 11 -6 4 -14 3 -18 -3z"/>
<path d="M5368 509 c-10 -5 -18 -15 -18 -21 0 -9 3 -9 12 0 17 17 58 15 58 -3
0 -9 -9 -15 -24 -15 -30 0 -57 -25 -49 -45 3 -11 18 -15 48 -13 l42 1 -5 46
c-2 25 -5 47 -6 47 -8 9 -45 11 -58 3z m50 -66 c-4 -23 -58 -31 -58 -9 0 13
16 22 48 25 8 0 12 -7 10 -16z"/>
<path d="M5495 510 c-4 -6 -11 -8 -16 -5 -5 4 -8 -16 -7 -47 l1 -53 6 44 c4
31 12 46 25 51 13 4 16 9 9 13 -7 4 -14 3 -18 -3z"/>
<path d="M5552 504 c-25 -18 -30 -65 -8 -83 19 -16 68 -10 74 7 3 11 0 11 -16
1 -23 -14 -52 -6 -52 16 0 11 11 15 40 15 45 0 50 10 20 40 -24 24 -29 24 -58
4z m56 -21 c2 -9 -7 -13 -27 -13 -30 0 -39 9 -24 24 11 10 46 3 51 -11z"/>
<path d="M3660 505 c0 -2 9 -27 20 -54 18 -46 18 -52 4 -66 -9 -9 -14 -19 -10
-22 3 -4 11 -2 16 3 14 14 61 144 51 144 -4 0 -14 -19 -21 -42 l-13 -43 -13
30 c-7 17 -13 36 -14 43 0 11 -20 18 -20 7z"/>
<path d="M3970 502 c0 -5 7 -26 15 -45 8 -20 15 -46 15 -57 0 -11 -7 -20 -15
-20 -8 0 -15 -4 -15 -10 0 -12 11 -13 26 -2 15 10 64 142 54 142 -5 0 -15 -18
-21 -40 -13 -44 -24 -44 -34 0 -6 28 -25 52 -25 32z"/>
</g>
</svg>
