<?xml version="1.0" standalone="no"?>
<!DOCTYPE svg PUBLIC "-//W3C//DTD SVG 20010904//EN"
 "http://www.w3.org/TR/2001/REC-SVG-20010904/DTD/svg10.dtd">
<svg version="1.0" xmlns="http://www.w3.org/2000/svg"
 width="850.000000pt" height="456.000000pt" viewBox="0 0 850.000000 456.000000"
 preserveAspectRatio="xMidYMid meet">

<g transform="translate(0.000000,456.000000) scale(0.100000,-0.100000)"
fill="#000000" stroke="none">
<path d="M5641 4199 c-247 -15 -557 -66 -856 -140 -506 -126 -926 -272 -1995
-694 -651 -257 -862 -335 -1092 -404 -622 -187 -1060 -217 -1420 -98 -89 30
-96 31 -86 12 39 -75 152 -172 273 -233 449 -225 1157 -228 1836 -6 190 62
331 122 729 309 427 200 668 309 950 428 1204 506 2081 673 2855 542 137 -23
327 -73 434 -114 30 -11 56 -19 58 -17 8 8 -233 141 -345 191 -296 132 -590
202 -940 225 -164 11 -209 11 -401 -1z"/>
<path d="M6125 3026 c-282 -94 -550 -233 -1015 -527 l-135 -86 -33 -81 c-184
-454 -80 -973 262 -1315 l72 -73 120 -22 c411 -75 825 -87 1263 -36 l143 17
91 86 c108 103 187 206 249 327 176 342 181 729 15 1078 l-52 109 -8 -34 c-25
-96 -72 -160 -150 -201 -61 -33 -165 -32 -230 2 -90 45 -146 134 -147 229 0
86 18 130 80 191 59 60 105 80 179 80 53 0 49 6 -52 82 -146 108 -391 209
-506 208 -25 -1 -91 -16 -146 -34z m-137 -440 c59 -31 88 -90 71 -150 -30
-107 -147 -137 -224 -56 -38 40 -45 111 -15 158 34 55 112 77 168 48z"/>
</g>
</svg>
